<?xml version="1.0" encoding="UTF-8"?>
<svg version="1.1" xmlns="http://www.w3.org/2000/svg" width="2000" height="2000">
<path d="M0 0 C1.03688965 0.32943604 1.03688965 0.32943604 2.09472656 0.66552734 C14.92813663 4.88068504 27.3050577 10.36363741 37 20 C37.47050781 18.87980469 37.94101563 17.75960937 38.42578125 16.60546875 C39.05430867 15.13265077 39.68323588 13.66000337 40.3125 12.1875 C40.62123047 11.44951172 40.92996094 10.71152344 41.24804688 9.95117188 C41.70727539 8.88286133 41.70727539 8.88286133 42.17578125 7.79296875 C42.45333252 7.1383667 42.73088379 6.48376465 43.0168457 5.80932617 C44.81651021 2.49735357 46.41550506 1.19483165 50 0 C52.61864161 -0.1484944 55.1932477 -0.2310027 57.8125 -0.25 C58.51181641 -0.270625 59.21113281 -0.29125 59.93164062 -0.3125 C64.72690523 -0.34838598 68.00884906 0.31981105 72 3 C74.61689428 6.60771144 75.37584537 9.12056913 75.38311005 13.54918575 C75.39216669 14.6596772 75.40122333 15.77016865 75.41055441 16.91431135 C75.40522648 18.12908503 75.39989856 19.34385872 75.39440918 20.59544373 C75.40050028 21.88996855 75.40659139 23.18449338 75.41286707 24.51824623 C75.42927974 28.10972965 75.42694604 31.70099375 75.4214921 35.29250157 C75.41882354 39.1664844 75.43335035 43.04040854 75.44558716 46.91436768 C75.46665026 54.50305776 75.47118153 62.09167145 75.46939927 69.68038731 C75.46809217 75.8477514 75.47189314 82.01509164 75.47932434 88.18245125 C75.48142351 89.95825658 75.48352111 91.73406191 75.48561716 93.50986725 C75.48666069 94.39370337 75.48770422 95.27753949 75.48877937 96.18815852 C75.50768505 112.90681299 75.50663044 129.62542359 75.49981004 146.34408433 C75.49423344 161.64281676 75.51506436 176.9413818 75.54817051 192.2400751 C75.58189266 207.94518916 75.59707774 223.65022298 75.59245348 239.35537392 C75.59020741 248.17409064 75.59547213 256.9926526 75.62034607 265.81133842 C75.6413401 273.31842941 75.6449701 280.82528078 75.62604648 288.33238154 C75.61687704 292.16309916 75.61578194 295.99336979 75.63640213 299.82405281 C75.65850241 303.97557582 75.6419242 308.12604158 75.62145996 312.27757263 C75.63397781 313.49011559 75.64649566 314.70265856 75.65939283 315.95194525 C75.56308675 325.03243211 75.56308675 325.03243211 72.64865875 328.73265171 C68.52362885 332.26382743 64.88431898 332.18257158 59.69921875 332.23828125 C58.98522415 332.246353 58.27122955 332.25442474 57.53559875 332.26274109 C56.0251405 332.2765588 54.51465132 332.28729129 53.00415039 332.29516602 C51.46499435 332.30668252 49.92587814 332.32712948 48.38696289 332.35668945 C46.15744013 332.39950509 43.92910232 332.41555322 41.69921875 332.42578125 C41.01776291 332.44328934 40.33630707 332.46079742 39.63420105 332.47883606 C34.6394075 332.45637408 31.79962933 331.19542195 28 328 C26.13568745 325.01020395 25.74483441 322.72516134 25.7215271 319.22906494 C25.71036362 318.27276688 25.69920013 317.31646881 25.68769836 316.33119202 C25.68553818 315.28893967 25.68337799 314.24668732 25.68115234 313.17285156 C25.66608391 311.51874519 25.66608391 311.51874519 25.65071106 309.83122253 C25.61980721 306.18436202 25.60282369 302.53757516 25.5859375 298.890625 C25.56723167 296.36284752 25.54765871 293.83507633 25.5272522 291.30731201 C25.48111643 285.33279617 25.44373042 279.35828746 25.41057932 273.3836906 C25.37234414 266.58076652 25.32293766 259.7779379 25.27259517 252.97509432 C25.1693043 238.98346704 25.08003468 224.99177825 25 211 C23.85474854 211.54994629 22.70949707 212.09989258 21.52954102 212.66650391 C20.00026281 213.39506682 18.47087891 214.12340791 16.94140625 214.8515625 C16.18976196 215.2132251 15.43811768 215.5748877 14.66369629 215.94750977 C-10.24357115 227.7708784 -39.97993546 227.93726722 -65.81201172 218.84960938 C-76.63718932 214.64612599 -86.30696406 208.67432079 -95 201 C-96.06109526 200.16487873 -97.12341884 199.33131341 -98.1875 198.5 C-101.82905986 195.2630579 -104.91872578 191.76810222 -108 188 C-108.70253906 187.14664062 -109.40507813 186.29328125 -110.12890625 185.4140625 C-131.16435604 158.70818711 -137.83824484 125.44712855 -134.05444336 92.03369141 C-130.08864554 61.53796259 -115.10625645 33.85811821 -90.93359375 14.55078125 C-64.88049253 -4.27777902 -30.76967694 -9.78094248 0 0 Z M-68.75 60.33203125 C-84.05503553 78.48018971 -87.70660964 98.92454467 -86 122 C-83.8309044 139.34191929 -73.71463048 154.5848005 -60.6875 165.8125 C-47.41125954 176.1343615 -32.73822971 180.32382532 -16 179 C0.07573896 176.8465521 13.58229628 170.94513581 27 162 C27.30762202 159.29132313 27.41980598 156.80942246 27.40405273 154.09716797 C27.41091599 153.28067276 27.41777924 152.46417755 27.42485046 151.62294006 C27.44321105 148.91251418 27.43926551 146.2026625 27.43359375 143.4921875 C27.4381535 141.60848807 27.44345845 139.7247903 27.44947815 137.84109497 C27.45842918 133.88488021 27.45596634 129.92886705 27.44604492 125.97265625 C27.43459531 120.91527199 27.45469475 115.8585901 27.48396206 110.80129814 C27.50236521 106.9063579 27.50202268 103.01158432 27.49632454 99.11661148 C27.4961716 97.25318548 27.50219338 95.38974798 27.51461601 93.52636337 C27.52958931 90.9102041 27.51880053 88.29532019 27.50170898 85.67919922 C27.51137695 84.91629074 27.52104492 84.15338226 27.53100586 83.36735535 C27.38697611 72.77383049 21.00073978 66.31241656 14 59 C13.14921875 58.03707031 13.14921875 58.03707031 12.28125 57.0546875 C4.02119459 48.02531321 -7.87687162 42.2099967 -20.11328125 41.56640625 C-21.84619508 41.54288849 -23.57954732 41.5420441 -25.3125 41.5625 C-26.68716431 41.57494751 -26.68716431 41.57494751 -28.08959961 41.58764648 C-44.18569491 41.98632456 -57.72124712 48.64932988 -68.75 60.33203125 Z " fill="#000000" transform="translate(1031,910)"/>
<path d="M0 0 C1.19625 -0.01289062 2.3925 -0.02578125 3.625 -0.0390625 C8.00731726 0.823199 9.12011472 2.22959843 12 5.625 C13.60985753 8.44945206 14.88474332 11.38713796 16.16015625 14.375 C16.73360275 15.67853676 16.73360275 15.67853676 17.31863403 17.00840759 C18.57735847 19.87602544 19.8197267 22.75043782 21.0625 25.625 C21.94773346 27.64841129 22.83422933 29.6712707 23.72192383 31.69360352 C25.56791687 35.90183716 27.40843176 40.11240319 29.24511719 44.32470703 C33.10101375 53.15705334 37.02084406 61.96084956 40.94171143 70.76449585 C42.18420601 73.5551018 43.42512363 76.34640357 44.66552734 79.13793945 C50.32347547 91.86996883 55.99910311 104.59404688 61.6875 117.3125 C62.24055313 118.5495015 62.24055313 118.5495015 62.80477905 119.81149292 C63.83155579 122.10764207 64.85899069 124.40349527 65.88671875 126.69921875 C66.18984985 127.37708435 66.49298096 128.05494995 66.80529785 128.75335693 C68.35409627 132.21199292 68.35409627 132.21199292 70 135.625 C70.41770157 134.10999908 70.41770157 134.10999908 70.84384155 132.56439209 C73.51870695 122.86285056 76.19394484 113.1614118 78.86951256 103.46006393 C80.24375053 98.47716789 81.61787433 93.49424042 82.99169922 88.51123047 C83.25584499 87.55320778 83.51999077 86.59518509 83.79214096 85.60813141 C84.32410047 83.67870118 84.85599384 81.74925273 85.3878212 79.81978607 C86.71086693 75.02078333 88.03583306 70.22232522 89.36468506 65.42492676 C91.66105747 57.13075522 93.95150973 48.83572834 96.17872429 40.52267075 C97.08038919 37.16055846 97.99073329 33.8008274 98.90205765 30.44132233 C99.32163942 28.88473368 99.73687041 27.32696473 100.14741135 25.76796722 C100.70920459 23.63547538 101.28577102 21.50749571 101.86572266 19.37988281 C102.18336578 18.1890509 102.50100891 16.99821899 102.82827759 15.77130127 C104.31265295 11.78546636 106.28563206 8.80732272 109.8125 6.375 C116.75186155 3.99579033 124.32386351 4.4087269 131.5625 4.375 C133.22829102 4.3440625 133.22829102 4.3440625 134.92773438 4.3125 C145.27898052 4.26294287 145.27898052 4.26294287 150 7.625 C152.34713648 11.14570471 152.29489732 12.48305387 152 16.625 C151.33351135 19.44656372 151.33351135 19.44656372 150.38500977 22.39892578 C150.03107651 23.51766083 149.67714325 24.63639587 149.31248474 25.78903198 C148.92190384 26.99560455 148.53132294 28.20217712 148.12890625 29.4453125 C147.71833817 30.73658178 147.30882099 32.02818561 146.90028381 33.32009888 C146.25778543 35.35148108 145.61466384 37.38264281 144.96850109 39.41286278 C142.85178486 46.06493359 140.80303675 52.73702445 138.76698875 59.41415596 C138.1432369 61.45955051 137.51834264 63.50459293 136.8931427 65.54954529 C135.80094039 69.12242163 134.7097132 72.69559489 133.6187706 76.26885605 C132.92450568 78.54255607 132.22994645 80.81616601 131.53530884 83.0897522 C125.85692466 101.67620171 120.19336435 120.26711698 114.546875 138.86328125 C114.14650874 140.18175049 114.14650874 140.18175049 113.73805428 141.52685547 C111.38413103 149.27896753 109.03045044 157.03115291 106.68014526 164.78436279 C106.18967976 166.40230392 105.69921145 168.0202442 105.20874023 169.63818359 C104.96952441 170.42730762 104.73030859 171.21643166 104.4838438 172.02946854 C102.64930736 178.07908901 100.80762322 184.12651272 98.9626894 190.17296982 C97.64638205 194.49058931 96.3417187 198.811525 95.04577541 203.13529873 C94.22603793 205.86445736 93.39870586 208.59127313 92.56957436 211.31759071 C92.00444613 213.18486975 91.44900007 215.0550705 90.8938446 216.92533875 C90.55545059 218.03319229 90.21705658 219.14104584 89.8684082 220.2824707 C89.57827347 221.24739944 89.28813873 222.21232819 88.98921204 223.20649719 C87.97423393 225.68799489 87.06418493 226.94854662 85 228.625 C80.25046809 230.55999448 74.94818854 230.14363938 70.109375 228.85546875 C65.13430161 225.2866661 63.51681931 220.20270935 61.125 214.6875 C60.56501383 213.43494821 60.00328004 212.1831765 59.43994141 210.93212891 C57.91885875 207.54137884 56.42165853 204.14056417 54.92895508 200.73724365 C53.38731517 197.23188674 51.82575628 193.73543738 50.265625 190.23828125 C48.29396492 185.81479617 46.3251283 181.39011059 44.36572266 176.96118164 C39.1407301 165.15336496 33.83377815 153.38402806 28.5 141.625 C22.28420362 127.91747671 16.10896934 114.19299301 10 100.4375 C9.66234619 99.67751709 9.32469238 98.91753418 8.97680664 98.13452148 C5.94752056 91.31358771 2.92934488 84.48955575 0 77.625 C-5.10802992 87.62271791 -9.91401472 97.7007192 -14.41195679 107.98678589 C-20.50945527 121.92058531 -26.78833023 135.76495342 -33.1875 149.5625 C-38.45740631 160.93143562 -43.69520416 172.3114773 -48.8125 183.75 C-49.32458008 184.88928955 -49.83666016 186.0285791 -50.36425781 187.20239258 C-52.81864717 192.67789932 -55.24038126 198.16453807 -57.59376526 203.68411255 C-58.75088268 206.39195333 -59.9224967 209.09340397 -61.09555054 211.79437256 C-61.65010577 213.08245869 -62.19752533 214.37364404 -62.73721313 215.66802979 C-63.48276788 217.45549574 -64.25453507 219.2319597 -65.02734375 221.0078125 C-65.45781006 222.02246582 -65.88827637 223.03711914 -66.33178711 224.08251953 C-68.43821459 227.29287162 -70.4745676 228.22078502 -74 229.625 C-76.125 230.0234375 -76.125 230.0234375 -78 230 C-78.61875 230.00773437 -79.2375 230.01546875 -79.875 230.0234375 C-83.35878859 229.37022714 -85.07739943 228.79521051 -88 226.625 C-89.97153296 222.71646328 -91.0925528 218.56843257 -92.3125 214.375 C-92.72628365 213.0179535 -93.14239535 211.66161518 -93.56054688 210.3059082 C-94.51541693 207.19719149 -95.45621783 204.08460403 -96.38916016 200.96923828 C-98.15383944 195.09178991 -99.9719208 189.23128038 -101.79296875 183.37109375 C-104.68650744 174.05276211 -107.56896275 164.73110631 -110.44140625 155.40625 C-114.92091078 140.86902972 -119.42621508 126.33988443 -123.9375 111.8125 C-124.67978943 109.42147448 -125.4220583 107.03044257 -126.16430664 104.6394043 C-129.48524619 93.9421118 -132.80733614 83.24517665 -136.12972164 72.54833317 C-137.79746694 67.17872234 -139.46487674 61.80900738 -141.13208866 56.43923092 C-142.50477949 52.01816479 -143.8781808 47.59731974 -145.25170898 43.17651367 C-145.96861565 40.8676846 -146.68549534 38.55884716 -147.40234375 36.25 C-147.88392944 34.7008062 -147.88392944 34.7008062 -148.37524414 33.12031555 C-148.97108426 31.20043362 -149.56486249 29.27991012 -150.15621948 27.35864258 C-150.72845139 25.50475112 -151.30789524 23.65307327 -151.89382935 21.8034668 C-152.17064545 20.91570557 -152.44746155 20.02794434 -152.73266602 19.11328125 C-152.98009048 18.32993408 -153.22751495 17.54658691 -153.48243713 16.73950195 C-154.21767979 13.7356697 -153.99394104 11.53582734 -153 8.625 C-150.98814325 5.84672163 -149.30039361 5.23890688 -146 4.625 C-141.43536804 4.4248116 -136.86947629 4.43919408 -132.30102539 4.43969727 C-130.07353608 4.43751083 -127.84654242 4.41933572 -125.61914062 4.40039062 C-124.19531418 4.39745622 -122.7714854 4.39547174 -121.34765625 4.39453125 C-120.05867432 4.39042236 -118.76969238 4.38631348 -117.44165039 4.38208008 C-113.29383381 4.6748429 -110.35619022 5.13020493 -107.49534607 8.28343201 C-105.62689077 11.20925313 -104.80400643 13.9867672 -103.84619141 17.32568359 C-103.65182149 17.99448233 -103.45745157 18.66328106 -103.25719166 19.35234642 C-102.61383175 21.57378285 -101.98268346 23.79849583 -101.3515625 26.0234375 C-100.89826298 27.59820827 -100.44423284 29.1727689 -99.98951721 30.74713135 C-98.77532552 34.95911306 -97.57171606 39.17405098 -96.37017441 43.38965607 C-95.13091778 47.73076867 -93.88181855 52.06904772 -92.6340332 56.40771484 C-86.5538839 77.56810702 -80.52010555 98.74262529 -74.59423828 119.94677734 C-74.35100327 120.8149408 -74.10776825 121.68310425 -73.85716248 122.57757568 C-73.41415641 124.15979204 -72.97282321 125.74247826 -72.53358459 127.32574463 C-71.50148047 131.06210838 -71.50148047 131.06210838 -70 134.625 C-63.15601426 120.00905869 -56.39029773 105.36717409 -49.86743164 90.60449219 C-46.86003858 83.80213624 -43.83018019 77.01077511 -40.7734375 70.23046875 C-40.40183502 69.40604782 -40.03023254 68.58162689 -39.64736938 67.73222351 C-38.10953076 64.32155545 -36.57110291 60.91115796 -35.03009033 57.50192261 C-30.8507103 48.25530069 -26.70736598 38.99692197 -22.6875 29.6796875 C-22.00505486 28.10485979 -21.32252096 26.53007055 -20.63989258 24.95532227 C-19.3662222 22.01588658 -18.10803828 19.07046395 -16.8581543 16.12084961 C-16.28491971 14.7951604 -15.71113924 13.46970704 -15.13671875 12.14453125 C-14.64905029 11.00089111 -14.16138184 9.85725098 -13.65893555 8.67895508 C-10.24020608 2.38537349 -7.19181486 -0.077498 0 0 Z " fill="#000000" transform="translate(312,905.375)"/>
<path d="M0 0 C1.63195206 1.34578038 3.25713818 2.69981313 4.875 4.0625 C6.01775391 5.00222656 6.01775391 5.00222656 7.18359375 5.9609375 C13.19796509 11.06846256 18.08480974 16.80790536 22.875 23.0625 C23.48214844 23.84238281 24.08929687 24.62226562 24.71484375 25.42578125 C42.73035392 49.73242196 48.49566913 81.11564872 44.15234375 110.76953125 C38.76779474 141.47065516 21.58762164 170.01321885 -4.125 188.0625 C-20.71252589 198.89740531 -39.19449697 206.06748245 -59.125 207.0625 C-60.60419922 207.14177734 -60.60419922 207.14177734 -62.11328125 207.22265625 C-89.95494318 207.9751336 -116.10693761 199.49939683 -137.125 181.0625 C-137.88039063 180.43859375 -138.63578125 179.8146875 -139.4140625 179.171875 C-145.4442344 174.07420391 -150.33600432 168.32435439 -155.125 162.0625 C-155.73214844 161.27101563 -156.33929688 160.47953125 -156.96484375 159.6640625 C-175.65372417 134.15225749 -181.85511014 103.0769766 -177.30029297 71.95239258 C-172.00426176 41.62673338 -154.82330535 15.16486446 -129.93212891 -2.69433594 C-90.75497279 -29.64517071 -37.58161468 -29.46674842 0 0 Z M-113.125 43.0625 C-126.69843522 58.46629239 -132.04358792 76.65812713 -131.25683594 97.00683594 C-130.03424057 116.07026746 -122.20366856 132.40059478 -108.5625 145.8125 C-95.95868235 156.5599414 -79.90284868 161.83985905 -63.40234375 161.33984375 C-45.88474742 159.85742499 -30.30818088 152.55341234 -18.65625 139.2421875 C-5.74747124 122.76197995 -0.71005751 104.84541877 -2.125 84.0625 C-3.92301685 69.98983267 -8.39862419 58.23605511 -17.125 47.0625 C-17.89070313 46.03189453 -17.89070313 46.03189453 -18.671875 44.98046875 C-27.55195887 33.8364031 -41.19619662 26.49256 -55.125 24.0625 C-77.94367992 22.52839297 -96.33040865 26.61586289 -113.125 43.0625 Z " fill="#000000" transform="translate(660.125,927.9375)"/>
<path d="M0 0 C1.11503906 -0.00128906 2.23007813 -0.00257813 3.37890625 -0.00390625 C7.09883601 0.68496963 8.09224391 1.65014049 10.4375 4.5625 C10.94530869 6.9756279 10.94530869 6.9756279 10.95648193 9.71307373 C10.97039474 10.75351334 10.98430756 11.79395294 10.99864197 12.86592102 C10.9936116 14.00168076 10.98858124 15.13744049 10.98339844 16.30761719 C10.99373611 17.50789047 11.00407379 18.70816376 11.01472473 19.94480896 C11.03915876 23.23180905 11.04598944 26.51828109 11.04500484 29.80535412 C11.04813394 33.24208694 11.07375198 36.67865029 11.09698486 40.11529541 C11.13754891 46.62107314 11.15788644 53.12675063 11.17095876 59.63263535 C11.18682751 67.04017406 11.22524252 74.44754215 11.26555204 81.8549819 C11.34795644 97.09077055 11.40204507 112.32652539 11.4375 127.5625 C12.54736015 126.84062752 12.54736015 126.84062752 13.67964172 126.10417175 C14.6584581 125.47320084 15.63727448 124.84222992 16.64575195 124.19213867 C17.61253372 123.56651535 18.57931549 122.94089203 19.57539368 122.29631042 C23.44203123 119.95397379 27.36492575 118.34528303 31.625 116.875 C32.43163086 116.58737793 33.23826172 116.29975586 34.06933594 116.00341797 C63.41623183 105.78554033 95.77507673 104.50365006 124.4375 117.5625 C151.49299387 131.12207693 170.20221028 155.61717635 179.75 183.9375 C189.04657708 217.48781374 186.64734106 255.62117423 169.61914062 286.37939453 C155.46109031 310.62070657 134.32484042 328.07069503 107.125 335.375 C78.58671964 341.83506346 49.96079887 335.67953723 25.51171875 320.35546875 C19.6458399 316.56425863 14.29038489 312.62791999 9.4375 307.5625 C9.3873877 308.11711914 9.33727539 308.67173828 9.28564453 309.24316406 C9.05288326 311.76711964 8.80781964 314.28973539 8.5625 316.8125 C8.48386719 317.68519531 8.40523437 318.55789063 8.32421875 319.45703125 C8.24042969 320.30136719 8.15664062 321.14570312 8.0703125 322.015625 C7.99699707 322.79067383 7.92368164 323.56572266 7.84814453 324.36425781 C7.3980868 326.77348483 6.73978681 328.48763197 5.4375 330.5625 C0.86903923 332.79360875 -2.6822685 332.91811986 -7.5625 331.5625 C-10.30427312 329.34586375 -11.42839003 327.50082684 -11.92887414 323.99909115 C-12.08477732 320.59621464 -12.09996738 317.21492383 -12.0771637 313.80847168 C-12.08410922 312.49690708 -12.09105475 311.18534247 -12.09821075 309.83403349 C-12.11686143 306.19494838 -12.11052502 302.55626956 -12.10005772 298.91716743 C-12.09307256 294.99206974 -12.10905836 291.06705609 -12.12205505 287.14198303 C-12.14371137 279.45333847 -12.14356408 271.76484181 -12.13542951 264.07617676 C-12.12913322 257.82823069 -12.13026312 251.58032781 -12.13670158 245.3323822 C-12.13760324 244.44361231 -12.13850489 243.55484241 -12.13943387 242.6391401 C-12.14128504 240.83369941 -12.1431476 239.02825874 -12.14502143 237.22281808 C-12.1616054 220.28766759 -12.15287542 203.35260038 -12.13603585 186.4174549 C-12.12133639 170.9175805 -12.13596967 155.41789991 -12.16480602 139.91805047 C-12.19418471 124.00840226 -12.20517689 108.09884355 -12.19562382 92.18916941 C-12.19460125 90.39031889 -12.19360664 88.59146835 -12.1926403 86.7926178 C-12.19216391 85.9075169 -12.19168752 85.022416 -12.1911967 84.11049387 C-12.18903065 77.86903321 -12.19884668 71.62765711 -12.21341133 65.38621521 C-12.23090977 57.78137044 -12.23085318 50.17677286 -12.20805968 42.57193792 C-12.19689498 38.6907216 -12.19380478 34.80994117 -12.21236038 30.92874336 C-12.23220298 26.72431071 -12.21343121 22.52094591 -12.19068909 18.31652832 C-12.20252482 17.08550872 -12.21436054 15.85448913 -12.22655493 14.5861659 C-12.12521887 5.40834022 -12.12521887 5.40834022 -9.22270107 2.30467987 C-5.92688297 0.14623102 -3.91998758 -0.07721876 0 0 Z M20.4375 145.5625 C19.57133403 146.09474497 18.70516806 146.62698994 17.81275463 147.17536354 C12.53746424 150.81733769 12.53746424 150.81733769 9.50867653 156.28886032 C9.14373973 159.55281261 9.09675762 162.68635824 9.15942383 165.97021484 C9.14350693 167.19402359 9.12759003 168.41783234 9.1111908 169.6787262 C9.07905256 173.01782129 9.09153347 176.35067224 9.12717652 179.68933058 C9.15637777 183.19607148 9.13563736 186.7025904 9.12272644 190.2093811 C9.10913407 196.09907254 9.13686085 201.98749851 9.1887207 207.87695312 C9.24792807 214.66469328 9.23918168 221.44979241 9.19437391 228.23758352 C9.15292595 234.79141543 9.16260201 241.34426685 9.19421959 247.89812088 C9.20659129 250.67568742 9.20096126 253.45232791 9.18027687 256.22983932 C9.1538365 260.11957408 9.20201019 264.0065238 9.25708008 267.89599609 C9.24043304 269.03501877 9.22378601 270.17404144 9.20663452 271.34757996 C9.40275757 279.17670753 11.61720679 283.01042723 17.15967846 288.51055336 C20.16567175 291.21846429 23.14254463 293.87746198 26.375 296.3125 C26.97852295 296.77293701 27.5820459 297.23337402 28.20385742 297.70776367 C44.25270676 309.7940396 62.16872996 315.9854865 82.3125 315.875 C83.37243164 315.87008545 84.43236328 315.8651709 85.52441406 315.86010742 C92.87629336 315.74972734 99.50402666 315.15729987 106.4375 312.5625 C107.41203125 312.23378906 108.3865625 311.90507813 109.390625 311.56640625 C130.60471755 303.70631299 145.45076007 285.042441 154.75463867 265.09619141 C165.80837522 240.05384825 165.69775451 209.76727672 155.97094727 184.40625 C147.56161195 163.80249646 131.491784 146.26306439 111.4375 136.5625 C81.18604006 124.54479674 48.02809468 128.1478855 20.4375 145.5625 Z " fill="#000000" transform="translate(1657.5625,797.4375)"/>
<path d="M0 0 C1.54300781 -0.07347656 1.54300781 -0.07347656 3.1171875 -0.1484375 C6.25556521 0.39772174 7.89056048 1.16388988 10.07385826 3.4917202 C12.52243227 7.87871179 11.81850791 13.363236 11.78442383 18.2434082 C11.79490753 19.55111679 11.80539124 20.85882538 11.81619263 22.2061615 C11.84431822 25.78443791 11.84187137 29.36211446 11.83389878 32.94046807 C11.83077216 36.68282921 11.85581254 40.42499981 11.87785339 44.1672821 C11.91529665 51.25034331 11.92744153 58.33321253 11.9304778 65.41636294 C11.93516834 73.48171415 11.96809146 81.54687299 12.00337565 89.61213934 C12.0753117 106.19974807 12.11182713 122.78723832 12.125 139.375 C12.59124786 138.90227158 13.05749573 138.42954315 13.53787231 137.94248962 C14.15717621 137.31814529 14.7764801 136.69380096 15.41455078 136.05053711 C16.02517365 135.43343369 16.63579651 134.81633026 17.2649231 134.18052673 C38.28022753 113.78153469 64.77883097 107.89657113 93.1640625 108.1640625 C110.94198101 108.54775858 127.44578488 113.79179365 141.125 125.375 C141.84171875 125.97957031 142.5584375 126.58414063 143.296875 127.20703125 C162.48034992 144.86623781 166.65101974 172.69469474 168.125 197.375 C168.46418189 206.70870666 168.45591171 216.04968276 168.45951414 225.38846779 C168.46095459 227.49372495 168.46525805 229.59895745 168.47050858 231.70420837 C168.4888471 239.06926078 168.49719611 246.43424191 168.49560547 253.79931641 C168.49439483 260.63952129 168.5157173 267.47941543 168.5470928 274.31954145 C168.57323264 280.23083702 168.58397438 286.14203043 168.58269465 292.05338335 C168.58218616 295.56835045 168.58781204 299.08303734 168.60905075 302.59794617 C168.63199548 306.49836602 168.62292669 310.39835171 168.61083984 314.29882812 C168.62207886 315.45410507 168.63331787 316.60938202 168.64489746 317.79966736 C168.58342893 325.58089697 168.58342893 325.58089697 166.28213501 329.56726074 C162.31825455 332.88910304 158.07879954 332.76201559 153.125 332.375 C149.22577031 331.27304378 148.4245707 330.82435605 146.125 327.375 C145.8688736 324.97343922 145.8688736 324.97343922 145.85998535 322.07270813 C145.85171219 320.97262421 145.84343903 319.87254028 145.83491516 318.73912048 C145.83589706 317.53139481 145.83687897 316.32366913 145.83789062 315.0793457 C145.82740032 313.12658669 145.81690961 311.17382767 145.80640411 309.22106874 C145.7970259 307.11930407 145.79256179 305.01757914 145.78947449 302.91579628 C145.78274886 298.52144341 145.76097318 294.12724351 145.73693848 289.73295593 C145.68793882 280.38450661 145.65573161 271.03602443 145.625 261.6875 C145.59184866 251.63821258 145.55552994 241.58898487 145.50086927 231.53978795 C145.4815103 227.89519644 145.46617016 224.25068341 145.46052551 220.60604286 C145.7432581 179.68716375 145.7432581 179.68716375 126.6328125 144.69921875 C113.14071462 132.19486013 96.08559606 129.62657175 78.32080078 130.24755859 C58.49719267 131.39809489 41.1504432 141.16856641 26.375 153.8125 C25.76068115 154.3379541 25.1463623 154.8634082 24.51342773 155.40478516 C23.33309624 156.44233076 22.17077426 157.50084256 21.0303688 158.58211899 C19.81170878 159.72883264 18.56119725 160.84315738 17.27381516 161.91214371 C12.86519367 166.05187187 11.62308677 169.31431552 11.26544189 175.34637451 C11.21096049 178.17128713 11.24501799 180.99053077 11.28613281 183.81542969 C11.28315263 185.37661092 11.27705194 186.93778883 11.26808167 188.49894714 C11.25548772 191.8479183 11.26478611 195.19584396 11.29138947 198.54473114 C11.33331672 203.83946273 11.32607426 209.13344549 11.31243896 214.42828369 C11.29669133 222.79929481 11.31386571 231.16986192 11.3451097 239.5408175 C11.40047294 254.54310294 11.40898504 269.54540092 11.39160609 284.54776883 C11.38693553 289.81209654 11.399713 295.07601402 11.42671156 300.34027147 C11.44096849 303.61055599 11.4432652 306.88077466 11.44267082 310.15108681 C11.44505677 311.66846009 11.45264322 313.18583535 11.46578407 314.70315361 C11.48310144 316.77286737 11.48208653 318.84179956 11.47662354 320.91156006 C11.48334768 322.64922449 11.48334768 322.64922449 11.49020767 324.42199326 C11.087029 327.68202703 10.39389739 329.0428608 8.125 331.375 C4.04489032 332.94363112 -0.57230739 332.81984166 -4.875 332.375 C-9.41554054 330.29391892 -9.41554054 330.29391892 -10.875 327.375 C-10.97103198 325.62253345 -11.00236672 323.86637956 -11.00363445 322.11128426 C-11.0068589 320.98811558 -11.01008335 319.8649469 -11.0134055 318.70774281 C-11.0118569 317.46341162 -11.0103083 316.21908043 -11.00871277 314.93704224 C-11.01097833 313.62325179 -11.01324388 312.30946134 -11.01557809 310.95585907 C-11.021719 307.2967872 -11.02155982 303.6377381 -11.02038372 299.97866225 C-11.02018028 296.03720351 -11.02569296 292.09575219 -11.03044128 288.15429688 C-11.03876101 280.42751748 -11.04149672 272.7007457 -11.04205366 264.9739622 C-11.04252821 258.69543816 -11.04457989 252.41691665 -11.04775429 246.1383934 C-11.05656458 228.35178693 -11.0611731 210.56518649 -11.06042381 192.77857782 C-11.06038386 191.81894694 -11.0603439 190.85931607 -11.06030273 189.87060547 C-11.06026185 188.90980776 -11.06022097 187.94901005 -11.06017885 186.95909725 C-11.05977231 171.38405404 -11.06934302 155.80903501 -11.0834411 140.23399879 C-11.09779064 124.25553909 -11.10471207 108.27709118 -11.10384732 92.29862487 C-11.10351485 83.32236516 -11.10628373 74.34613078 -11.11702538 65.36987686 C-11.12611171 57.72767543 -11.12832107 50.08551082 -11.12151595 42.44330634 C-11.11824122 38.5421078 -11.1182282 34.64097996 -11.1268692 30.73978806 C-11.13612995 26.51544634 -11.12998305 22.29126974 -11.12223816 18.06692505 C-11.12738172 16.8270553 -11.13252529 15.58718556 -11.13782471 14.309744 C-11.13322592 13.18135983 -11.12862712 12.05297566 -11.12388897 10.89039803 C-11.12410634 9.91484148 -11.12432371 8.93928494 -11.12454766 7.93416607 C-10.86088497 5.23024728 -10.40319845 3.61496999 -8.875 1.375 C-5.74420913 0.33140304 -3.28983851 0.10665312 0 0 Z " fill="#000000" transform="translate(1176.875,797.625)"/>
<path d="M0 0 C2.07953336 3.03265282 2.7397863 5.56569462 2.5 9.1875 C1.15068421 13.34060356 -0.71786452 17.20236908 -2.625 21.125 C-3.11226562 22.17107422 -3.59953125 23.21714844 -4.1015625 24.29492188 C-11.64839892 40.26169946 -11.64839892 40.26169946 -15.5 42.1875 C-20.13587756 42.68067846 -22.93927319 42.07782734 -27.1875 40.1875 C-38.14841539 35.95431889 -52.40624886 36.76485747 -63.3359375 40.71875 C-74.43759448 45.87211176 -87.79692964 52.87737996 -93.5 64.1875 C-94.35783671 68.84380173 -94.29701346 73.41941016 -94.24121094 78.14331055 C-94.24611387 79.5452385 -94.25367857 80.94715926 -94.26368713 82.34906006 C-94.28351354 86.13631706 -94.26705311 89.92264591 -94.24442959 93.70985389 C-94.22754325 97.68072295 -94.24621554 101.65141639 -94.26153564 105.62226868 C-94.28553157 113.13850322 -94.28088592 120.65440971 -94.26441312 128.17065412 C-94.23583701 141.63735266 -94.25608394 155.10402838 -94.28681207 168.57070762 C-94.29645463 173.29443108 -94.29356511 178.01793547 -94.28013659 182.74164808 C-94.27332106 185.67874338 -94.27435939 188.61580195 -94.27714348 191.55290222 C-94.27638903 193.56171569 -94.26551962 195.57051738 -94.25434875 197.57929993 C-94.25808754 199.37710403 -94.25808754 199.37710403 -94.26190186 201.21122742 C-94.25850863 202.77052491 -94.25850863 202.77052491 -94.25504684 204.36132336 C-94.51458085 207.35572829 -95.15998702 209.50545782 -96.5 212.1875 C-103.13035138 216.69613894 -113.54457785 215.37004671 -121.1875 215.375 C-122.19361328 215.38724609 -123.19972656 215.39949219 -124.23632812 215.41210938 C-136.17510838 215.43571936 -136.17510838 215.43571936 -140.62718964 211.13046265 C-143.04255105 207.33492704 -143.05754398 204.15575164 -143.00793457 199.79931641 C-143.01417453 198.95736032 -143.0204145 198.11540424 -143.02684355 197.24793434 C-143.04279231 194.42802513 -143.03016202 191.60897805 -143.01757812 188.7890625 C-143.0229984 186.76690161 -143.03012053 184.74474467 -143.03881836 182.72259521 C-143.05706574 177.23089684 -143.04997824 171.73949879 -143.03730202 166.2477951 C-143.02718174 160.50324183 -143.036565 154.75871443 -143.04284668 149.01416016 C-143.0501259 139.36681497 -143.0405281 129.71959223 -143.02148438 120.07226562 C-142.99971518 108.91534169 -143.00676635 97.75871014 -143.02879 86.60179329 C-143.0469361 77.02629657 -143.04950616 67.45088792 -143.03903532 57.87537956 C-143.03279607 52.15476564 -143.03197669 46.43428919 -143.04518127 40.71368408 C-143.05672758 35.33573964 -143.04873611 29.9581725 -143.02560425 24.58026886 C-143.02031067 22.60537594 -143.02184199 20.63045133 -143.03065491 18.65557098 C-143.0415683 15.96184507 -143.02789792 13.269332 -143.00793457 10.57568359 C-143.01685746 9.79212305 -143.02578034 9.00856251 -143.03497362 8.20125771 C-142.96355212 3.24090433 -142.06465868 0.65647602 -138.5 -2.8125 C-132.18623373 -6.33077717 -124.12488283 -5.38673042 -117.171875 -4.5234375 C-115.375 -4 -115.375 -4 -112.5 -1.8125 C-110.66229614 1.71440639 -109.60401929 5.3779227 -108.5 9.1875 C-107.75701839 11.41901571 -107.00719477 13.64826694 -106.25 15.875 C-105.66513897 17.64532936 -105.08123295 19.41597616 -104.5 21.1875 C-103.88125 20.44306641 -103.88125 20.44306641 -103.25 19.68359375 C-80.72634761 -6.81186342 -30.60605618 -22.18939073 0 0 Z " fill="#000000" transform="translate(887.5,914.8125)"/>
<path d="M0 0 C2.2629127 2.04392115 2.43008981 2.80594256 2.9375 5.75 C3.03127237 7.65700277 3.07072426 9.56695648 3.07553101 11.47625732 C3.08098434 12.64502914 3.08643768 13.81380096 3.09205627 15.01799011 C3.0930986 16.29692642 3.09414093 17.57586273 3.09521484 18.89355469 C3.09988564 20.25733096 3.10502965 21.62110569 3.11061096 22.98487854 C3.12188236 25.92208459 3.13032163 28.85928055 3.13673019 31.79650116 C3.14744303 36.45553825 3.1677012 41.11450353 3.18984985 45.77349854 C3.25164887 59.02263049 3.30561221 72.2717595 3.33886719 85.52099609 C3.35731438 92.83860607 3.38638227 100.1560967 3.4268719 107.47361875 C3.447788 111.33842748 3.46337688 115.20308675 3.46567917 119.06795502 C3.34478162 155.78875224 3.34478162 155.78875224 20.375 187.5 C35.76687376 201.01481598 55.24734445 201.93372388 74.9375 200.75 C95.30152733 198.2946729 111.58443148 185.44627659 124.9375 170.75 C125.70221225 170.01196199 125.70221225 170.01196199 126.48237324 169.25901413 C132.37670214 162.80028161 131.76173682 155.53961539 131.6628418 147.30957031 C131.66610439 145.7483902 131.67204573 144.18721375 131.68045044 142.62605286 C131.69281708 139.27719175 131.68647768 135.92908486 131.66538048 132.58026886 C131.63222826 127.28557268 131.64163876 121.99146356 131.6566925 116.69671631 C131.67554387 108.32576575 131.66656849 99.95511899 131.64537126 91.5841825 C131.60762438 76.58185904 131.60349166 61.57957659 131.63022357 46.57723117 C131.63831853 41.31292726 131.62970464 36.0489895 131.60766065 30.78472853 C131.59658798 27.5144343 131.5975574 24.2442203 131.6015358 20.97391319 C131.60074845 19.45654556 131.59477349 17.93917052 131.58325768 16.42184639 C131.56817868 14.35211747 131.57142747 12.2831909 131.57914734 10.21343994 C131.57596339 9.05499699 131.57277945 7.89655403 131.56949902 6.70300674 C131.97813704 3.42391 132.61390986 2.0644248 134.9375 -0.25 C140.24090061 -2.0178002 145.87325253 -2.17680499 151 0.125 C152.9375 1.75 152.9375 1.75 153.9375 3.75 C154.03984716 6.48691234 154.08087541 9.19863614 154.07794189 11.93600464 C154.08091302 12.79243722 154.08388414 13.6488698 154.0869453 14.53125489 C154.09565746 17.41781899 154.09714266 20.30434174 154.09863281 23.19091797 C154.10325918 25.25366302 154.10828359 27.31640721 154.11367798 29.37915039 C154.12682076 34.99482359 154.13325049 40.61048483 154.13768864 46.22617102 C154.14061609 49.73152294 154.14472025 53.23687156 154.14919281 56.74222183 C154.16287215 67.70072505 154.1725369 78.65922076 154.1763947 89.61773193 C154.18087789 102.2844925 154.19843612 114.95114529 154.2273953 127.61787307 C154.24898182 137.39793969 154.25909735 147.17797591 154.26043582 156.95806611 C154.26148594 162.80444165 154.26743781 168.65071595 154.28525543 174.4970665 C154.30168398 179.99471603 154.30391706 185.49218764 154.29511642 190.98985291 C154.29434327 193.01032613 154.29872522 195.03080872 154.30857468 197.05125809 C154.32121132 199.80439586 154.31546272 202.5568955 154.30499268 205.31002808 C154.31707728 206.51615338 154.31707728 206.51615338 154.32940602 207.74664485 C154.30015908 211.02310708 154.16350045 213.34671388 152.5449028 216.23501778 C149.55902046 219.04922133 145.87178163 218.79840065 141.9375 218.75 C139 218.1875 139 218.1875 136.9375 216.75 C134.82319965 211.74901651 134.33264511 206.7214096 133.8125 201.375 C133.72613281 200.54355469 133.63976563 199.71210937 133.55078125 198.85546875 C133.34031157 196.82092853 133.13806686 194.7855403 132.9375 192.75 C132.38835937 193.45962891 132.38835937 193.45962891 131.828125 194.18359375 C117.63387205 211.52085985 95.17740025 220.76973359 73.27734375 223.3671875 C48.68318974 225.7616151 25.10159991 221.6328384 4.6875 207.5 C-13.89334114 188.91915886 -19.19804934 162.17097741 -19.34466553 136.78970337 C-19.34218811 135.50341034 -19.33971069 134.21711731 -19.3371582 132.8918457 C-19.34152077 131.47741938 -19.34670896 130.06299542 -19.35264587 128.64857483 C-19.36586464 124.86003178 -19.36663523 121.07158945 -19.36408257 117.28302789 C-19.36300355 114.10888008 -19.36791851 110.93475191 -19.372688 107.76060838 C-19.38371838 100.27862264 -19.38425383 92.79668716 -19.37817383 85.31469727 C-19.37210512 77.60442384 -19.38453279 69.89433156 -19.4057439 62.184089 C-19.42334281 55.54172904 -19.42936496 48.89942692 -19.42610615 42.25704449 C-19.42429435 38.29886397 -19.42692151 34.34081348 -19.44082069 30.38265419 C-19.45337071 26.67161882 -19.45148216 22.96086873 -19.43840981 19.24983788 C-19.43491003 17.23971186 -19.44623565 15.2295772 -19.45797729 13.21948242 C-19.45096298 12.02402298 -19.44394867 10.82856354 -19.4367218 9.59687805 C-19.43688954 8.55814198 -19.43705729 7.51940592 -19.43723011 6.449193 C-19.00481687 3.33450655 -18.25024601 1.98107598 -16.0625 -0.25 C-10.77490199 -2.01253267 -5.17767012 -2.11333474 0 0 Z " fill="#000000" transform="translate(1425.0625,911.25)"/>
</svg>
