<?xml version="1.0" encoding="UTF-8"?>
<svg version="1.1" xmlns="http://www.w3.org/2000/svg" width="2000" height="2000">
<path d="M0 0 C3.07988074 1.37354813 5.19004942 2.94040987 7.56881469 5.3204177 C8.264563 6.01167142 8.9603113 6.70292514 9.67714289 7.41512594 C10.81436567 8.56022976 10.81436567 8.56022976 11.97456264 9.72846699 C12.78809941 10.53969606 13.60163617 11.35092514 14.43982556 12.18673691 C16.70648667 14.44900211 18.96858592 16.71571893 21.22887739 18.984345 C23.68543377 21.44775951 26.14777928 23.90537564 28.60940748 26.36372012 C32.9261417 30.67630223 37.23913606 34.99259665 41.54972839 39.31131744 C47.95973754 45.73338029 54.37545512 52.14971727 60.79237197 58.56487705 C71.58695049 69.35682534 82.37686041 80.15343 93.16413689 90.95267677 C103.85118811 101.65155655 114.54029997 112.34837059 125.23217964 123.04242516 C126.22884845 124.03930018 126.22884845 124.03930018 127.24565198 125.0563141 C130.62005443 128.43139321 133.99449383 131.80643538 137.36894745 135.18146332 C161.28504076 159.10175999 185.19649207 183.02669202 209.10522461 206.9543457 C232.32261057 230.19008438 255.54208394 253.42373384 278.7644043 276.65454102 C279.47960971 277.37000948 280.19481513 278.08547795 280.93169344 278.82262728 C288.11452535 286.00809639 295.2974 293.19352276 302.48030612 300.37891768 C317.12624085 315.02992879 331.77189293 329.68122244 346.41737366 344.33268738 C347.09113813 345.00672643 347.76490261 345.68076549 348.45908419 346.37522997 C389.24685414 387.1796808 430.02911433 427.98963817 470.81014675 468.80082256 C471.67467487 469.66598488 472.53920299 470.5311472 473.42992893 471.42252657 C475.01660122 473.0103654 476.60326605 474.59821168 478.18992153 476.18606731 C485.26732297 483.27816181 485.26732297 483.27816181 492.375 490.33984375 C493.58337296 491.53902257 494.79170562 492.73824201 496 493.9375 C496.60328125 494.53240234 497.2065625 495.12730469 497.828125 495.74023438 C500.58074132 498.47789083 503.2397436 501.21725018 505.6953125 504.2265625 C507.65111173 506.5801514 509.53395901 508.48987046 511.875 510.4375 C516.95779323 514.78462579 521.66902377 519.34561361 525.9375 524.5 C527.99116492 526.94611921 530.11162007 529.01668182 532.5625 531.0625 C536.5379597 534.42752443 539.99628617 538.15959295 543.5 542 C548.50906105 547.49531035 548.50906105 547.49531035 554 552.5 C558.49252298 556.23107841 562.29143235 560.58082394 566.22045898 564.88452148 C569.60394717 568.56662498 573.07094018 571.90636078 576.91796875 575.10546875 C580.32838915 578.20875936 583.34011443 581.67829405 586.43115234 585.09521484 C590.27044116 589.30233971 594.3521705 593.08559874 598.64453125 596.83203125 C601.06430922 599.05919008 603.21087816 601.40005276 605.375 603.875 C609.22067436 608.26616008 613.35019488 612.14109488 617.68994141 616.02587891 C621.20411433 619.19709563 624.31032586 622.51883628 627.33203125 626.15234375 C629.80237853 628.88881743 632.62016507 631.15956261 635.49609375 633.45703125 C637 635 637 635 637 638 C635.54711027 639.53143438 635.54711027 639.53143438 633.52819604 641.16699445 C628.95902694 644.99996466 624.75677764 649.10535722 620.54886341 653.32808876 C619.73239964 654.14339868 618.91593588 654.95870861 618.07473078 655.79872489 C615.8203437 658.05092985 613.56819681 660.30534674 611.31699704 662.56073676 C608.86300534 665.01818046 606.40609274 667.47270109 603.94955605 669.92760026 C599.64833696 674.22675044 595.34897115 678.52774697 591.05082512 682.82996941 C584.65940138 689.22743792 578.26510249 695.62202692 571.87021735 702.01603519 C561.11086448 712.77407514 550.35383804 723.53443844 539.59813881 734.29613113 C528.94674147 744.9534485 518.29430801 755.60972846 507.64049339 766.26462936 C506.97770883 766.92748267 506.31492426 767.59033598 505.63205531 768.27327575 C502.26591406 771.63975534 498.89975433 775.00621646 495.53358748 778.37267046 C471.69381205 802.21454598 447.85635538 826.05873858 424.02026367 849.90429688 C400.87755581 873.05618527 377.73380091 896.20702618 354.58862305 919.35644531 C353.87543779 920.06976209 353.16225254 920.78307888 352.42745561 921.51801132 C345.2647261 928.68205946 338.1019752 935.84608621 330.93920856 943.01009722 C316.3350972 957.61674659 301.73112724 972.22353733 287.12724304 986.83041382 C286.1195283 987.83833449 286.1195283 987.83833449 285.09145569 988.8666172 C244.4406049 1029.52580464 203.79251006 1070.18774723 163.14503175 1110.85030615 C162.28356706 1111.71208794 161.42210237 1112.57386973 160.5345327 1113.46176612 C158.95355585 1115.04332622 157.37258274 1116.62489005 155.79161432 1118.20645857 C152.19475055 1121.80464688 148.5976748 1125.40262259 145 1129 C144.38447266 1129.61552734 143.76894531 1130.23105469 143.13476562 1130.86523438 C93.59375 1180.40625 93.59375 1180.40625 91.70874023 1182.29101562 C90.30653718 1183.69341902 88.90511265 1185.09660079 87.50390625 1186.5 C85.46446208 1188.53626251 83.4191548 1190.56617482 81.37109375 1192.59375 C80.05985012 1193.8957873 78.74865311 1195.19787155 77.4375 1196.5 C76.77814453 1197.15097656 76.11878906 1197.80195312 75.43945312 1198.47265625 C72.05374616 1201.84134962 68.96521362 1205.24929933 66 1209 C64.78165483 1210.13899916 63.53170276 1211.24529708 62.25 1212.3125 C57.13855442 1216.6896521 52.14887174 1221.24675808 48 1226.5625 C45.61947442 1229.46376555 42.92571382 1231.74224529 40.08203125 1234.1796875 C35.7337429 1237.98138051 31.74537523 1242.05275443 28.0625 1246.5 C25.99125939 1248.96809249 23.84476236 1251.05752883 21.375 1253.125 C16.84265437 1256.94587277 12.95723807 1261.30127517 9.03662109 1265.73291016 C7.7291973 1267.19038715 6.36860314 1268.59981371 5 1270 C4.34 1270 3.68 1270 3 1270 C3 1270.66 3 1271.32 3 1272 C-1 1272 -1 1272 -2.46652228 1270.70958042 C-3.19613335 1269.77276888 -3.19613335 1269.77276888 -3.94048405 1268.81703186 C-7.0681413 1265.03582789 -10.37604265 1261.50213325 -13.84327602 1258.03367615 C-14.6689639 1257.20578864 -14.6689639 1257.20578864 -15.51133234 1256.36117613 C-17.32294637 1254.54790828 -19.13758709 1252.73770121 -20.95225525 1250.92749023 C-22.27432128 1249.6049877 -23.59616736 1248.28226525 -24.91781336 1246.95934296 C-28.53685836 1243.33806858 -32.15900279 1239.71990851 -35.78167307 1236.1022613 C-39.69273908 1232.195522 -43.60090623 1228.28588465 -47.50942993 1224.37660217 C-54.27718934 1217.60831894 -61.04677427 1210.84186607 -67.81760979 1204.07666016 C-77.60704666 1194.29535739 -87.39371436 1184.51128777 -97.17971284 1174.7265451 C-113.05771258 1158.85073286 -128.93793897 1142.97714981 -144.81958008 1127.10498047 C-160.2452358 1111.68851393 -175.66983723 1096.27099379 -191.09301758 1080.85205078 C-191.56870073 1080.37649915 -192.04438388 1079.90094753 -192.53448168 1079.41098525 C-197.31162838 1074.6351571 -202.08875371 1069.85930758 -206.86586339 1065.08344239 C-246.9073451 1025.05239596 -286.95242823 985.0249538 -327 945 C-325.45491571 941.32494208 -323.2343906 938.98575972 -320.42789268 936.18179703 C-319.95790549 935.70950214 -319.48791829 935.23720725 -319.00368905 934.7506004 C-317.42167536 933.1632771 -315.8326068 931.58321034 -314.24349976 930.00299072 C-313.09877658 928.85739568 -311.95449289 927.71136135 -310.81061232 926.56492496 C-307.66138231 923.41121375 -304.50593456 920.26378799 -301.3494606 917.11732936 C-297.94844305 913.72493287 -294.55319089 910.32677494 -291.15724182 906.92930603 C-285.27118381 901.04219832 -279.38146926 895.15876929 -273.48926926 889.27780914 C-264.97009848 880.77487885 -256.45644279 872.26644419 -247.94413157 863.75664744 C-234.13398023 849.95087548 -220.31936663 836.14957759 -206.50195312 822.35107422 C-193.07806363 808.94553723 -179.6562722 795.53790538 -166.23730469 782.12744141 C-164.9969962 780.88792108 -164.9969962 780.88792108 -163.73163097 779.62335995 C-159.58355012 775.47788914 -155.43551058 771.33237702 -151.28749156 767.18684435 C-116.86472812 732.78482099 -82.43472505 698.39005008 -48 664 C-49.69288795 660.34614774 -51.60545833 658.37421925 -54.6875 655.75 C-57.79107346 653.03105744 -60.67590971 650.36068279 -63.3125 647.1875 C-66.43906495 643.46681345 -69.90497135 640.25519755 -73.5 637 C-77.65727115 633.2343854 -81.46740457 629.43911452 -85.0625 625.125 C-87.70600411 622.22567292 -90.59383249 619.63249254 -93.5 617 C-97.6501278 613.24069141 -101.45820995 609.45531715 -105.04296875 605.14453125 C-108.31366006 601.5604803 -111.94704212 598.35890018 -115.55859375 595.12304688 C-118.07636727 592.8528743 -120.10879867 590.83680199 -122 588 C-125.92788231 589.58838403 -128.55343678 592.29662054 -131.46484375 595.26953125 C-131.98003067 595.78754807 -132.49521759 596.30556488 -133.02601624 596.83927917 C-134.6679495 598.49236715 -136.30280019 600.15226177 -137.9375 601.8125 C-139.03273809 602.91777871 -140.12843671 604.02260128 -141.22460938 605.12695312 C-143.2501893 607.16881385 -145.27298942 609.21334469 -147.29272461 611.26098633 C-149.85219841 613.85046569 -152.42310334 616.42787194 -155 619 C-155.61552734 619.61552734 -156.23105469 620.23105469 -156.86523438 620.86523438 C-206.40625 670.40625 -206.40625 670.40625 -208.29125977 672.29101562 C-209.69346282 673.69341902 -211.09488735 675.09660079 -212.49609375 676.5 C-214.53553792 678.53626251 -216.5808452 680.56617482 -218.62890625 682.59375 C-219.94014988 683.8957873 -221.25134689 685.19787155 -222.5625 686.5 C-223.22185547 687.15097656 -223.88121094 687.80195312 -224.56054688 688.47265625 C-227.94625384 691.84134962 -231.03478638 695.24929933 -234 699 C-235.21834517 700.13899916 -236.46829724 701.24529708 -237.75 702.3125 C-242.86144558 706.6896521 -247.85112826 711.24675808 -252 716.5625 C-254.35999322 719.43874174 -257.02357708 721.69043261 -259.84375 724.10546875 C-264.2095382 727.9413515 -268.42112277 731.97706355 -272 736.5625 C-274.38052558 739.46376555 -277.07428618 741.74224529 -279.91796875 744.1796875 C-284.2662571 747.98138051 -288.25462477 752.05275443 -291.9375 756.5 C-294.00874061 758.96809249 -296.15523764 761.05752883 -298.625 763.125 C-302.40198368 766.32313561 -305.68573709 769.83833657 -309 773.5 C-312.17590489 777.00592006 -315.29130278 780.40799576 -318.9375 783.4375 C-322.80161638 786.65625248 -326.11596191 790.29321516 -329.5 794 C-333.44899596 798.32562459 -337.40005602 802.35036367 -341.91015625 806.09765625 C-344.79896118 808.72727868 -347.37880312 811.60672337 -350 814.5 C-353.17609671 818.00577496 -356.29126861 821.40796737 -359.9375 824.4375 C-363.80161638 827.65625248 -367.11596191 831.29321516 -370.5 835 C-374.44899596 839.32562459 -378.40005602 843.35036367 -382.91015625 847.09765625 C-385.79896118 849.72727868 -388.37880312 852.60672337 -391 855.5 C-394.17609671 859.00577496 -397.29126861 862.40796737 -400.9375 865.4375 C-404.80161638 868.65625248 -408.11596191 872.29321516 -411.5 876 C-415.44899596 880.32562459 -419.40005602 884.35036367 -423.91015625 888.09765625 C-427.37351774 891.25028624 -430.43647665 894.77395729 -433.57836914 898.24243164 C-436.82206736 901.79744296 -440.17594012 904.9799501 -443.875 908.0625 C-446.77432975 910.70600654 -449.36748494 913.59384996 -452 916.5 C-455.17606933 920.00579567 -458.29127349 923.40797142 -461.9375 926.4375 C-465.80161638 929.65625248 -469.11596191 933.29321516 -472.5 937 C-476.44899596 941.32562459 -480.40005602 945.35036367 -484.91015625 949.09765625 C-488.37351774 952.25028624 -491.43647665 955.77395729 -494.57836914 959.24243164 C-497.26005198 962.1814883 -499.93740842 964.94784035 -503 967.5 C-506.61986073 970.51905397 -509.71989075 973.88678259 -512.875 977.375 C-517.22443444 982.18305988 -521.75053424 986.56097574 -526.640625 990.828125 C-529.08246831 993.07591454 -531.25152585 995.4414586 -533.4375 997.9375 C-537.47679644 1002.54873221 -541.87720557 1006.57033203 -546.453125 1010.640625 C-548.60639082 1012.63536819 -550.49846934 1014.62687911 -552.375 1016.875 C-555.47748516 1020.5769992 -558.92721665 1023.76456531 -562.5 1027 C-566.67974097 1030.7855254 -570.51338657 1034.60458589 -574.12890625 1038.94140625 C-577.06575171 1042.17254937 -580.35175334 1045.02098508 -583.59790039 1047.93383789 C-586.42462731 1050.49131055 -589.0553807 1053.07604358 -591.5 1056 C-595.24048319 1060.47391127 -599.57701913 1064.24353817 -603.9375 1068.09375 C-606.21517922 1070.17597254 -608.23586457 1072.37709012 -610.24017429 1074.72289276 C-613.74794228 1078.75951422 -617.43073454 1082.56841661 -621.2197113 1086.33996582 C-622.25773796 1087.37927411 -622.25773796 1087.37927411 -623.31673485 1088.43957853 C-625.61431051 1090.73878893 -627.91541899 1093.03442923 -630.21655273 1095.33007812 C-631.87295153 1096.98619458 -633.52912964 1098.64253179 -635.18510437 1100.29907227 C-639.66578196 1104.78003603 -644.14952979 1109.2579161 -648.63384509 1113.73523903 C-652.84967891 1117.94544467 -657.06319647 1122.15796607 -661.27673078 1126.37047285 C-669.61766993 1134.70922812 -677.96083569 1143.04575186 -686.30541992 1151.38085938 C-694.40718344 1159.47343155 -702.50788681 1167.56706252 -710.60717773 1175.66210938 C-711.10715393 1176.16182284 -711.60713012 1176.66153631 -712.12225711 1177.17639261 C-714.63070387 1179.68353426 -717.13912993 1182.19069663 -719.6475457 1184.6978693 C-740.4284874 1205.4684591 -761.21308824 1226.23538496 -782 1247 C-785.07761216 1245.5409197 -786.81107839 1244.29853805 -788.9375 1241.625 C-792.1977461 1237.75213746 -795.75228104 1234.38596182 -799.5 1231 C-803.65770287 1227.23490749 -807.46746729 1223.43903925 -811.0625 1219.125 C-813.70601479 1216.2256612 -816.5939116 1213.63259817 -819.5 1211 C-823.76795645 1207.13159948 -827.74541414 1203.22197008 -831.45703125 1198.8046875 C-834.97223526 1194.6932337 -838.80442126 1190.97140773 -843 1187.5625 C-846.07818664 1184.93321557 -848.57597495 1182.14036881 -851.1875 1179.0625 C-853.55425594 1176.36929496 -856.11032582 1173.90672505 -858.71484375 1171.4453125 C-860 1170 -860 1170 -860 1168 C-858.70703125 1166.73046875 -858.70703125 1166.73046875 -856.8125 1165.1875 C-851.03697523 1160.28861738 -845.79156698 1154.87187663 -840.47314453 1149.48925781 C-838.32447989 1147.31709104 -836.16208417 1145.15880331 -834 1143 C-832.801998 1141.80216868 -831.60408889 1140.60424444 -830.40625 1139.40625 C-782.59375 1091.59375 -782.59375 1091.59375 -780.7109375 1089.71118164 C-779.29628403 1088.29632631 -777.88241319 1086.88068852 -776.46875 1085.46484375 C-774.52569419 1083.5248624 -772.57703747 1081.59107011 -770.625 1079.66015625 C-769.41662704 1078.46097743 -768.20829438 1077.26175799 -767 1076.0625 C-766.39671875 1075.46759766 -765.7934375 1074.87269531 -765.171875 1074.25976562 C-762.41925868 1071.52210917 -759.7602564 1068.78274982 -757.3046875 1065.7734375 C-755.34888827 1063.4198486 -753.46604099 1061.51012954 -751.125 1059.5625 C-746.21859381 1055.36756891 -741.63756795 1051.01546825 -737.5625 1046 C-734.92782951 1042.91550772 -732.12058787 1040.41398962 -729.046875 1037.78515625 C-724.70693786 1034.00013474 -720.73413927 1029.93367761 -717.0625 1025.5 C-714.99125939 1023.03190751 -712.84476236 1020.94247117 -710.375 1018.875 C-706.59802121 1015.67686854 -703.3142341 1012.16168579 -700 1008.5 C-696.23447695 1004.34264798 -692.43910241 1000.53258534 -688.125 996.9375 C-685.22567025 994.29399346 -682.63251506 991.40615004 -680 988.5 C-676.82393067 984.99420433 -673.70872651 981.59202858 -670.0625 978.5625 C-666.19838362 975.34374752 -662.88403809 971.70678484 -659.5 968 C-655.55100404 963.67437541 -651.59994398 959.64963633 -647.08984375 955.90234375 C-644.20103882 953.27272132 -641.62119688 950.39327663 -639 947.5 C-635.82390329 943.99422504 -632.70873139 940.59203263 -629.0625 937.5625 C-625.19838362 934.34374752 -621.88403809 930.70678484 -618.5 927 C-614.55100404 922.67437541 -610.59994398 918.64963633 -606.08984375 914.90234375 C-603.20103882 912.27272132 -600.62119688 909.39327663 -598 906.5 C-594.82390329 902.99422504 -591.70873139 899.59203263 -588.0625 896.5625 C-584.19838362 893.34374752 -580.88403809 889.70678484 -577.5 886 C-573.55100404 881.67437541 -569.59994398 877.64963633 -565.08984375 873.90234375 C-561.62724938 870.75041206 -558.56480065 867.22767952 -555.42382812 863.75976562 C-552.15697226 860.17902727 -548.77469934 856.97040131 -545.05078125 853.86328125 C-542.39165842 851.44727822 -540.01943712 848.79767709 -537.625 846.125 C-533.46504948 841.48231994 -529.08871417 837.31025956 -524.390625 833.203125 C-521.9596567 830.96282088 -519.80005418 828.61301161 -517.625 826.125 C-513.77580482 821.72981969 -509.64113201 817.85316288 -505.29907227 813.96313477 C-502.52676402 811.45987096 -499.95500299 808.92994154 -497.5625 806.0625 C-493.98654454 801.78365403 -489.88432854 798.15948027 -485.76025391 794.42431641 C-482.18213681 791.1597616 -478.97453847 787.78117956 -475.87109375 784.05859375 C-472.93354954 780.82668186 -469.64659131 777.97776168 -466.39990234 775.06396484 C-463.59575475 772.52662816 -460.98364342 769.96666456 -458.5625 767.0625 C-455.48418337 763.37910885 -452.05037987 760.21583347 -448.5 757 C-444.23343564 753.13291765 -440.25643514 749.22517401 -436.546875 744.80859375 C-433.19332021 740.88764459 -429.57899639 737.2237222 -425.5 734.0625 C-422.60507588 731.6741876 -420.33043301 729.00078887 -417.89453125 726.15625 C-414.0586485 721.7904618 -410.02293645 717.57887723 -405.4375 714 C-403.27361612 712.22450554 -401.6630854 710.516729 -399.86057949 708.39543915 C-396.01834708 703.96398998 -391.94740599 699.81067602 -387.79322815 695.67297363 C-386.99503802 694.87392908 -386.19684789 694.07488452 -385.37447017 693.25162649 C-382.71758924 690.59310743 -380.05716662 687.93816208 -377.39672852 685.28320312 C-375.48389624 683.37121118 -373.57182093 681.45846288 -371.65971375 679.54574585 C-367.55206863 675.43757813 -363.4426066 671.33123531 -359.33188057 667.22615051 C-353.38857149 661.29099223 -347.44804819 655.35305202 -341.50818621 649.41444415 C-331.86947491 639.77791775 -322.22853577 630.14362345 -312.58618164 620.51074219 C-303.22335174 611.15710095 -293.86157989 601.80240281 -284.5012207 592.44628906 C-283.92358263 591.86891371 -283.34594455 591.29153835 -282.75080229 590.69666678 C-279.85276967 587.79993927 -276.95475776 584.90319105 -274.05675614 582.00643253 C-250.04104559 558.00107711 -226.02171367 533.9993482 -202 510 C-203.79348993 506.12296508 -206.28142412 503.45459455 -209.3125 500.5 C-210.0230957 499.79037109 -210.0230957 499.79037109 -210.74804688 499.06640625 C-212.96402754 496.87770852 -215.21142985 494.83160454 -217.6484375 492.890625 C-219.831175 491.13573306 -221.52622276 489.39530567 -223.3125 487.25 C-227.6896521 482.13855442 -232.24675808 477.14887174 -237.5625 473 C-240.41756583 470.65738189 -242.64485116 468.02070912 -245.0390625 465.21875 C-248.5059656 461.29603893 -252.27030332 457.67039055 -256 454 C-257.66809178 452.33475966 -259.33453194 450.66786441 -261 449 C-262.25642529 447.74340446 -263.51294288 446.48690121 -264.76953125 445.23046875 C-268.51302083 441.48697917 -272.25651042 437.74348958 -276 434 C-282.79562547 437.20995823 -287.63804191 443.33618453 -292.4375 449 C-295.01940469 452.01518985 -297.76361285 454.63514763 -300.75 457.25 C-304.64859669 460.67460317 -308.16961582 464.26746512 -311.625 468.125 C-314.56133436 471.40213171 -317.48588277 474.5554823 -320.875 477.375 C-324.75754991 480.61844704 -328.09594047 484.27086899 -331.5 488 C-335.44896892 492.32564842 -339.4000596 496.35036664 -343.91015625 500.09765625 C-347.37275062 503.24958794 -350.43519935 506.77232048 -353.57617188 510.24023438 C-356.84428118 513.82234659 -360.22844625 517.03159563 -363.953125 520.140625 C-366.58959171 522.53558331 -368.93991722 525.16181228 -371.3125 527.8125 C-375.77157543 532.7935226 -380.51875489 537.27016279 -385.5234375 541.7109375 C-387.65327028 543.67952111 -389.51949543 545.65387877 -391.375 547.875 C-394.47748925 551.57700408 -397.92723808 554.76453733 -401.5 558 C-405.02818915 561.195845 -408.44603136 564.33523763 -411.5 568 C-415.05112934 572.26135521 -419.14015696 575.86238433 -423.2421875 579.578125 C-426.18131114 582.25990602 -428.94776568 584.93731882 -431.5 588 C-435.05045727 592.26054873 -439.1384852 595.86115083 -443.23999023 599.57592773 C-446.81804352 602.84037912 -450.02553774 606.21891185 -453.12890625 609.94140625 C-455.58703639 612.64586258 -458.28338182 615.06176465 -461 617.5 C-465.09414771 621.17654464 -468.87514982 624.95057224 -472.421875 629.16015625 C-475.95519497 633.2794476 -479.79022381 637.01705684 -484 640.4375 C-487.08178229 643.0698557 -489.58149367 645.8734915 -492.20703125 648.9453125 C-495.67922775 652.92434378 -499.32245776 656.69990476 -503.5 659.9375 C-506.36770233 662.30335442 -508.61367207 664.94488433 -511.02734375 667.76171875 C-514.48362255 671.68339746 -518.07335718 675.5451941 -522 679 C-522.66 679 -523.32 679 -524 679 C-524.27070255 679.5955319 -524.54140511 680.1910638 -524.82031077 680.80464213 C-525.98849085 682.97858189 -527.13901373 684.38925154 -528.87502766 686.12572598 C-529.46671085 686.72241621 -530.05839403 687.31910644 -530.66800702 687.93387818 C-531.64594088 688.90478855 -531.64594088 688.90478855 -532.64363098 689.89531326 C-533.33757269 690.59216185 -534.03151439 691.28901044 -534.74648464 692.00697565 C-537.09033188 694.35816488 -539.44128813 696.70211613 -541.79223633 699.04620361 C-543.48412991 700.74039996 -545.17558699 702.43503231 -546.86664295 704.13006473 C-550.55324086 707.82329114 -554.24295507 711.51337469 -557.93541336 715.20074081 C-563.4260277 720.68380367 -568.91093044 726.17255334 -574.39470837 731.66245243 C-584.18721001 741.46549732 -593.98544133 751.26279952 -603.78610119 761.05768744 C-612.36142198 769.62798251 -620.93488818 778.20012739 -629.50650024 786.77413177 C-630.0744747 787.342259 -630.64244915 787.91038622 -631.22763494 788.49572941 C-633.53304683 790.80176395 -635.83845164 793.10780555 -638.1438448 795.4138588 C-659.78001722 817.05615239 -681.42202378 838.69260354 -703.06663592 860.32645613 C-722.31202221 879.56234829 -741.55222785 898.80340788 -760.78808594 918.04882812 C-782.38472173 939.65616364 -803.98457283 961.2602765 -825.58965206 982.85916972 C-827.890941 985.1598172 -830.19222205 987.46047257 -832.49349976 989.76113129 C-833.06016361 990.32763698 -833.62682746 990.89414268 -834.21066294 991.47781521 C-842.78226936 1000.04714299 -851.35139829 1008.61894297 -859.91934204 1017.19193268 C-869.6561638 1026.93446008 -879.3965255 1036.67343246 -889.14163804 1046.40766719 C-894.60109882 1051.86123552 -900.05776452 1057.31756628 -905.51051879 1062.77784029 C-909.57152833 1066.84383417 -913.6376965 1070.90463526 -917.70597875 1074.9633511 C-919.35910682 1076.61422918 -921.01051826 1078.26682821 -922.66011298 1079.9212369 C-924.88765408 1082.15478358 -927.12114846 1084.38219395 -929.35636902 1086.6080513 C-930.00832493 1087.26468954 -930.66028084 1087.92132778 -931.33199298 1088.59786415 C-935.77169923 1093 -935.77169923 1093 -938 1093 C-939.47861481 1091.49914932 -939.47861481 1091.49914932 -941.1842041 1089.44293213 C-944.62961757 1085.39408725 -948.26008053 1081.63480883 -952.05273438 1077.91308594 C-952.71860565 1077.2551001 -953.38447693 1076.59711426 -954.07052612 1075.91918945 C-955.50065594 1074.50611814 -956.93184181 1073.09411495 -958.36399841 1071.68309784 C-961.40705967 1068.68238317 -964.44057666 1065.67209587 -967.47473907 1062.66238785 C-973.1109354 1057.07183844 -978.75103927 1051.48536874 -984.40722656 1045.91503906 C-988.35524963 1042.02621974 -992.29111203 1038.12545795 -996.21907043 1034.21637726 C-997.71697206 1032.73024569 -999.21940598 1031.24866822 -1000.72636414 1029.77172089 C-1002.82329206 1027.71555981 -1004.90439392 1025.6445708 -1006.98242188 1023.56933594 C-1007.92509415 1022.6559848 -1007.92509415 1022.6559848 -1008.8868103 1021.72418213 C-1010.58581543 1020.00872803 -1010.58581543 1020.00872803 -1013 1017 C-1012.55305916 1012.48431367 -1009.42558429 1010.0135319 -1006.34675217 1006.97760868 C-1005.74772365 1006.37511863 -1005.14869513 1005.77262857 -1004.53151423 1005.15188125 C-1002.506827 1003.11920446 -1000.47154656 1001.09747251 -998.43621826 999.07545471 C-996.97397318 997.61190233 -995.51238714 996.14769125 -994.0514071 994.68287605 C-990.02249354 990.64723048 -985.98424473 986.62103891 -981.94446826 982.5962714 C-977.59401807 978.25873877 -973.25220204 973.91257906 -968.90934753 969.56744385 C-961.37864375 962.03516444 -953.84250577 954.50836205 -946.30254364 946.98535347 C-938.38998278 939.09053814 -930.48052689 931.19263334 -922.57520294 923.29057121 C-921.83816483 922.55384243 -921.83816483 922.55384243 -921.08623705 921.80223023 C-918.59083991 919.30784809 -916.09549818 916.81341052 -913.60017779 914.3189516 C-895.91506397 896.64014261 -878.22300271 878.96830128 -860.52685547 861.30053711 C-843.34593871 844.14714507 -826.16815369 826.99062681 -808.99462891 809.82983398 C-808.2013644 809.03716134 -808.2013644 809.03716134 -807.39207434 808.22847511 C-802.08073108 802.92108776 -796.76945194 797.61363623 -791.45822006 792.3061374 C-780.62528486 781.48081867 -769.79192714 770.65592282 -758.95831299 759.83128357 C-758.21057764 759.08416603 -758.21057764 759.08416603 -757.44773654 758.32195521 C-727.28201417 728.18124428 -697.10807467 698.04876064 -666.93220019 667.9182139 C-666.2910985 667.27806352 -665.64999681 666.63791314 -664.9894678 665.97836426 C-663.81679262 664.80743167 -662.64410309 663.63651345 -661.47139508 662.46561375 C-658.31289093 659.31177998 -655.1557998 656.15654039 -652 653 C-640.59375 641.59375 -640.59375 641.59375 -638.71508789 639.71533203 C-637.27691698 638.2769564 -635.83953603 636.83779097 -634.40234375 635.3984375 C-632.63902462 633.63798555 -630.87080071 631.88330624 -629.09765625 630.1328125 C-622.70126838 623.86777282 -622.70126838 623.86777282 -616.75 617.1875 C-614.79011918 614.81411831 -612.73344983 612.85320996 -610.375 610.875 C-606.59801632 607.67686439 -603.31426291 604.16166343 -600 600.5 C-596.82409511 596.99407994 -593.70869722 593.59200424 -590.0625 590.5625 C-586.19838362 587.34374752 -582.88403809 583.70678484 -579.5 580 C-575.55100404 575.67437541 -571.59994398 571.64963633 -567.08984375 567.90234375 C-564.20103882 565.27272132 -561.62119688 562.39327663 -559 559.5 C-555.82390329 555.99422504 -552.70873139 552.59203263 -549.0625 549.5625 C-545.19838362 546.34374752 -541.88403809 542.70678484 -538.5 539 C-534.55100404 534.67437541 -530.59994398 530.64963633 -526.08984375 526.90234375 C-522.62648226 523.74971376 -519.56352335 520.22604271 -516.42163086 516.75756836 C-513.73994802 513.8185117 -511.06259158 511.05215965 -508 508.5 C-504.38013927 505.48094603 -501.28010925 502.11321741 -498.125 498.625 C-493.77432123 493.81556458 -489.24644032 489.43687716 -484.35546875 485.16796875 C-481.93569078 482.94080992 -479.78912184 480.59994724 -477.625 478.125 C-473.77650863 473.73062333 -469.64286526 469.85431337 -465.30126953 465.96533203 C-461.8713699 462.8686665 -458.86376986 459.63117571 -455.90625 456.09375 C-453.43448578 453.37886143 -450.72947088 450.94922574 -448 448.5 C-444.66039642 445.50286759 -441.44124467 442.51555782 -438.5625 439.0625 C-434.98654454 434.78365403 -430.88432854 431.15948027 -426.76025391 427.42431641 C-423.18213681 424.1597616 -419.97453847 420.78117956 -416.87109375 417.05859375 C-414.41296361 414.35413742 -411.71661818 411.93823535 -409 409.5 C-404.90727028 405.82472871 -401.12677532 402.05259454 -397.58203125 397.84375 C-394.21079397 393.91480186 -390.59329984 390.23480737 -386.5 387.0625 C-384.4127486 385.34051759 -382.93133579 383.80207839 -381.21484375 381.75 C-376.08177498 375.82697108 -370.49698955 370.34782222 -364.94848633 364.81811523 C-363.06671726 362.94170525 -361.19035262 361.06001031 -359.31445312 359.17773438 C-353.87344183 353.73433463 -348.43787663 348.37185836 -342.57250977 343.38110352 C-340.33460804 341.4155997 -338.38641747 339.24846646 -336.4375 337 C-327.66638585 327.06644903 -327.66638585 327.06644903 -322.5 323.0625 C-319.64812798 320.70970558 -317.42338848 318.09015391 -315.02734375 315.28515625 C-311.22068227 310.99441065 -307.08369283 307.02460403 -303 303 C-301.33254476 301.33412228 -299.66598293 299.66735012 -298 298 C-216.19026372 216.19026372 -134.38052744 134.38052744 0 0 Z " fill="#FFFFFF" transform="translate(1265,364)"/>
<path d="M0 0 C2.34959129 0.93580558 3.58969527 1.99099902 5.37074757 3.78101635 C6.00730778 4.41345257 6.64386799 5.04588879 7.2997179 5.69748974 C7.98664219 6.39519985 8.67356647 7.09290997 9.38130665 7.81176281 C10.11340855 8.54342663 10.84551044 9.27509045 11.59979725 10.0289259 C14.0201473 12.45136753 16.42969565 14.88426557 18.83931446 17.31737804 C20.51446165 18.99811984 22.190272 20.67820093 23.86671925 22.35764599 C28.27921905 26.78160506 32.68263617 31.21449912 37.08424854 35.64928722 C41.57660033 40.17231631 46.07744713 44.68687423 50.57759571 49.20214367 C59.40756424 58.06429548 68.22825629 66.93562135 77.04243946 75.81347179 C75.7431569 78.67393286 74.37032256 80.73533247 72.15162772 82.95268053 C71.55641295 83.55238988 70.96119819 84.15209923 70.34794661 84.76998159 C69.69203521 85.42063897 69.03612381 86.07129634 68.3603363 86.74167061 C67.66222827 87.44208634 66.96412023 88.14250206 66.2448574 88.86414251 C63.88680695 91.22751824 61.52164574 93.58364887 59.15649891 95.93992138 C57.45436627 97.64292557 55.75267295 99.34636895 54.05138332 101.0502153 C50.34232864 104.76281882 46.63016688 108.47228638 42.91527462 112.17904758 C37.39109356 117.69117104 31.87264387 123.2090056 26.35536728 128.72803891 C17.07352566 138.01251031 7.78702991 147.29231336 -1.50211048 156.56948185 C-10.70496857 165.76050977 -19.90575906 174.95359937 -29.10379124 184.14945698 C-29.67548935 184.72101762 -30.24718747 185.29257825 -30.83620977 185.88145891 C-33.73960588 188.78417835 -36.64296504 191.68693474 -39.54630997 194.58970536 C-60.12234865 215.16154096 -80.70302181 235.72873435 -101.28641796 256.29320812 C-121.27248175 276.26091995 -141.25645681 296.2307184 -161.23758984 316.20336437 C-161.85295656 316.81846804 -162.46832328 317.43357171 -163.10233748 318.06731489 C-169.28257881 324.24491898 -175.46277739 330.42256584 -181.64294449 336.60024418 C-194.24604037 349.19826313 -206.84941843 361.79599976 -219.45296764 374.39356518 C-220.32277459 375.26296025 -220.32277459 375.26296025 -221.21015339 376.14991887 C-256.30668124 411.22976939 -291.40870332 446.30412196 -326.51198179 481.37721723 C-327.25687764 482.12147889 -328.0017735 482.86574054 -328.76924196 483.63255557 C-330.13423909 484.99638839 -331.49924466 486.36021276 -332.86426094 487.72402641 C-336.22948269 491.08638698 -339.59403891 494.44941029 -342.95756054 497.81347179 C-374.36381054 529.21972179 -374.36381054 529.21972179 -376.2488203 531.10448742 C-377.65102336 532.50689082 -379.05244789 533.91007259 -380.45365429 535.31347179 C-382.49309846 537.3497343 -384.53840574 539.37964661 -386.58646679 541.40722179 C-387.89771042 542.7092591 -389.20890743 544.01134334 -390.52006054 545.31347179 C-391.50909374 546.28993664 -391.50909374 546.28993664 -392.51810741 547.28612804 C-395.90381438 550.65482141 -398.99234692 554.06277112 -401.95756054 557.81347179 C-403.17590571 558.95247095 -404.42585778 560.05876888 -405.70756054 561.12597179 C-410.81900612 565.50312389 -415.8086888 570.06022988 -419.95756054 575.37597179 C-422.31867571 578.25358091 -424.98406671 580.50621917 -427.80521679 582.92284679 C-432.36176122 586.92532865 -436.62213438 591.17757474 -440.45756054 595.87597179 C-443.06478963 598.93946597 -445.8577923 601.41755413 -448.90677929 604.02440929 C-453.07537253 607.66101064 -456.906737 611.52015051 -460.39506054 615.81347179 C-462.38443326 618.14249352 -464.14099489 619.87897021 -466.45756054 621.81347179 C-470.45173147 625.20246531 -473.93403206 628.9508611 -477.45756054 632.81347179 C-481.406367 637.13926333 -485.35764164 641.16385631 -489.86771679 644.91112804 C-493.33107828 648.06375804 -496.39403719 651.58742908 -499.53592968 655.05590343 C-502.7796279 658.61091476 -506.13350066 661.79342189 -509.83256054 664.87597179 C-512.73189029 667.51947834 -515.32504548 670.40732175 -517.95756054 673.31347179 C-521.13362987 676.81926747 -524.24883403 680.22144321 -527.89506054 683.25097179 C-531.75917692 686.46972427 -535.07352245 690.10668695 -538.45756054 693.81347179 C-542.4065565 698.13909638 -546.35761656 702.16383546 -550.86771679 705.91112804 C-554.32800932 709.06096442 -557.38893136 712.58087951 -560.52714062 716.04711437 C-563.84401517 719.68373837 -567.2839742 722.95913613 -571.06693554 726.11425304 C-574.68853078 729.36919918 -577.80259136 733.1130957 -580.95756054 736.81347179 C-584.27469039 736.2289136 -585.91443586 735.23266512 -588.28586864 732.86611462 C-589.24070896 731.92396351 -589.24070896 731.92396351 -590.21483898 730.96277905 C-590.90176327 730.26978207 -591.58868755 729.57678509 -592.29642773 728.8627882 C-593.02852962 728.13594326 -593.76063152 727.40909832 -594.51491833 726.66022778 C-596.93569968 724.25266374 -599.34532732 721.83427489 -601.75443554 719.41503429 C-603.42979787 717.74169196 -605.1056054 716.06879525 -606.78184032 714.39632702 C-610.29372303 710.88886985 -613.80011484 707.37603627 -617.30277538 703.85937023 C-621.80104189 699.34399889 -626.31265768 694.84224453 -630.82845211 690.3444109 C-634.29100709 686.89267608 -637.74640986 683.43385294 -641.19966412 679.97281551 C-642.86090915 678.30956428 -644.52439921 676.64855233 -646.19012737 674.98979092 C-648.51283105 672.67467378 -650.82575318 670.35021412 -653.13627148 668.02294445 C-653.83129269 667.33399593 -654.5263139 666.64504742 -655.24239635 665.93522167 C-655.86767727 665.30148129 -656.49295818 664.6677409 -657.137187 664.01479626 C-657.68506752 663.46578466 -658.23294804 662.91677307 -658.79743099 662.35112476 C-659.95756054 660.81347179 -659.95756054 660.81347179 -659.95756054 657.81347179 C-658.50045937 656.27792418 -658.50045937 656.27792418 -656.47826958 654.63916492 C-651.95421035 650.84421173 -647.79153622 646.78427652 -643.62621593 642.60238171 C-642.42681551 641.40426292 -642.42681551 641.40426292 -641.20318478 640.18193972 C-638.54251604 637.52290919 -635.88542122 634.86033674 -633.22831249 632.19774914 C-631.31458106 630.28317735 -629.40009323 628.36936257 -627.48563671 626.45551586 C-623.37256897 622.34297082 -619.2613268 618.22860817 -615.15134144 614.11298275 C-609.20365894 608.1571443 -603.25318964 602.20409646 -597.30205467 596.25170799 C-587.63798256 586.58545049 -577.97614229 576.91696539 -568.31571484 567.24706554 C-558.94774433 557.86991907 -549.57872698 548.49382061 -540.20829296 539.11913586 C-539.34198996 538.25243877 -539.34198996 538.25243877 -538.45818589 537.36823265 C-535.55993008 534.46867147 -532.66165346 531.56913109 -529.76336634 528.6696012 C-509.79525894 508.69288948 -489.82936621 488.71396642 -469.86574841 468.73276806 C-469.02459663 467.89087669 -468.18344486 467.04898532 -467.31680363 466.18158209 C-465.76766497 464.63106842 -464.21853864 463.08054242 -462.66942769 461.53000104 C-459.09963639 457.95699253 -455.52931514 454.38451772 -451.95756054 450.81347179 C-451.3420332 450.19794445 -450.72650585 449.58241711 -450.09232616 448.94823742 C-421.33256054 420.18847179 -421.33256054 420.18847179 -419.57255077 418.42870617 C-418.21201705 417.06796677 -416.85227563 415.70643524 -415.49271679 414.34472179 C-413.44286519 412.29802868 -411.38719644 410.2576521 -409.32865429 408.21972179 C-408.01741066 406.91768449 -406.70621365 405.61560025 -405.39506054 404.31347179 C-404.73570507 403.66249523 -404.0763496 403.01151867 -403.39701366 402.34081554 C-400.0113067 398.97212218 -396.92277416 395.56417247 -393.95756054 391.81347179 C-392.73921537 390.67447264 -391.4892633 389.56817471 -390.20756054 388.50097179 C-385.09611495 384.1238197 -380.10643228 379.56671371 -375.95756054 374.25097179 C-373.59644537 371.37336268 -370.93105437 369.12072442 -368.10990429 366.70409679 C-363.55335986 362.70161494 -359.2929867 358.44936884 -355.45756054 353.75097179 C-352.85033145 350.68747762 -350.05732877 348.20938946 -347.00834179 345.60253429 C-342.83974855 341.96593295 -339.00838408 338.10679308 -335.52006054 333.81347179 C-332.88539005 330.72897952 -330.0781484 328.22746142 -327.00443554 325.59862804 C-322.6644984 321.81360653 -318.69169981 317.7471494 -315.02006054 313.31347179 C-312.94881993 310.84537931 -310.8023229 308.75594297 -308.33256054 306.68847179 C-304.55557686 303.49033619 -301.27182345 299.97513522 -297.95756054 296.31347179 C-294.78165565 292.80755173 -291.66625776 289.40547604 -288.02006054 286.37597179 C-284.15594416 283.15721932 -280.84159863 279.52025664 -277.45756054 275.81347179 C-273.50856458 271.48784721 -269.55750452 267.46310812 -265.04740429 263.71581554 C-262.15859936 261.08619311 -259.57875742 258.20674843 -256.95756054 255.31347179 C-253.78146383 251.80769683 -250.66629193 248.40550443 -247.02006054 245.37597179 C-243.15594416 242.15721932 -239.84159863 238.52025664 -236.45756054 234.81347179 C-232.50856458 230.48784721 -228.55750452 226.46310812 -224.04740429 222.71581554 C-220.5840428 219.56318555 -217.52108389 216.0395145 -214.3791914 212.57104015 C-211.69750856 209.63198349 -209.02015212 206.86563145 -205.95756054 204.31347179 C-202.33769981 201.29441782 -199.23766979 197.9266892 -196.08256054 194.43847179 C-191.73188177 189.62903637 -187.20400086 185.25034896 -182.31302929 180.98144054 C-179.89325132 178.75428172 -177.74668238 176.41341903 -175.58256054 173.93847179 C-171.73336536 169.54329148 -167.59869255 165.66663467 -163.2566328 161.77660656 C-160.48432456 159.27334276 -157.91256353 156.74341334 -155.52006054 153.87597179 C-151.94410508 149.59712582 -147.84188908 145.97295206 -143.71781445 142.2377882 C-140.13969735 138.9732334 -136.93209901 135.59465135 -133.82865429 131.87206554 C-130.89111008 128.64015365 -127.60415185 125.79123348 -124.35746288 122.87743664 C-121.55331529 120.34009996 -118.94120396 117.78013635 -116.52006054 114.87597179 C-113.44174391 111.19258064 -110.00794041 108.02930527 -106.45756054 104.81347179 C-102.19099617 100.94638945 -98.21399568 97.03864581 -94.50443554 92.62206554 C-91.15088075 88.70111639 -87.53655693 85.037194 -83.45756054 81.87597179 C-80.58369097 79.5050294 -78.33358278 76.85860918 -75.91849804 74.03222179 C-72.45159494 70.10951072 -68.68725722 66.48386234 -64.95756054 62.81347179 C-61.32897442 59.19630543 -57.72468248 55.55576329 -54.1291914 51.90575695 C-48.45270123 46.14785688 -42.76372474 40.40246606 -37.06736946 34.66421986 C-33.62656047 31.19720032 -30.19062807 27.72560735 -26.76493359 24.24364758 C-23.44380857 20.86834561 -20.11074732 17.50527343 -16.7689333 14.15045834 C-15.49785301 12.87012638 -14.23118814 11.58539552 -12.96901798 10.29627895 C-11.20956769 8.50072134 -9.43527867 6.7212366 -7.65653515 4.94481945 C-7.13642864 4.40673656 -6.61632214 3.86865368 -6.08045483 3.31426525 C-2.47906675 -0.23622047 -2.47906675 -0.23622047 0 0 Z " fill="#FFFFFF" transform="translate(757.9575605392456,566.1865282058716)"/>
</svg>
